<?xml version="1.0" encoding="UTF-8"?>
<svg width="5159px" height="5162px" viewBox="0 0 5159 5162" version="1.1" xmlns="http://www.w3.org/2000/svg" xmlns:xlink="http://www.w3.org/1999/xlink">
    <title>Group 5</title>
    <g id="Page-1" stroke="none" stroke-width="1" fill="none" fill-rule="evenodd">
        <g id="Group-5">
            <g id="Group-3">
                <g id="Group-2">
                    <path d="M859.426176,658 L859.403016,658.042133 C1019.49845,845.6782 1245.86809,1004.63487 1517.12735,1120.57664 L1517.11043,1120.53482 C1373.30915,1535.67133 1288.77869,2039.20133 1288.00535,2582.14271 L0.004,2582.15466 L-4.54747351e-13,2581.65466 C-4.54747351e-13,1817.48365 331.907116,1130.83371 859.426176,658 Z" id="Combined-Shape" fill="#C0D8FF"></path>
                    <path d="M2580.49465,1328.6251 L2580.99465,1328.62144 L2580.99465,2582.6201 L1287,2582.60833 C1287.77332,2039.66676 1372.30382,1536.1366 1516.10517,1121 L1516.123,1121.04252 C1823.61437,1252.47047 2188.78797,1328.6251 2580.49465,1328.6251 Z" id="Combined-Shape" fill="#A4C7FF"></path>
                    <path d="M21.277664,2245.68322 L21.2976021,2245.68983 L20,2255.64377 C20.419581,2252.32162 20.8454731,2249.00143 21.277664,2245.68322 Z M27.1374433,2203.42317 L27.1598486,2203.43054 L25.4887901,2214.80744 C26.0300866,2211.01001 26.579644,2207.21525 27.1374433,2203.42317 Z M33.6692947,2161.42544 L33.6940715,2161.43403 L31.6931565,2173.66024 C32.3423149,2169.57878 33.0010355,2165.5005 33.6692947,2161.42544 Z M40.8500217,2119.78063 L40.8771204,2119.7905 L38.6066536,2132.36035 C39.3443182,2128.16361 40.0921163,2123.97036 40.8500217,2119.78063 Z M48.6739135,2078.62142 C47.823757,2082.91858 46.9842612,2087.21958 46.1554547,2091.52438 L46.1266126,2091.51455 C46.4105414,2090.03936 46.6957255,2088.56462 46.9821637,2087.09032 L48.6739135,2078.62142 Z M57.0600143,2037.96203 C55.7884413,2043.88475 54.5371788,2049.81501 53.3063032,2055.75273 L53.2755733,2055.74134 C53.8716054,2052.86523 54.4724208,2049.99088 55.0780106,2047.11829 L57.0600143,2037.96203 Z M65.8264658,1998.63632 C64.4331455,2004.66345 63.060923,2010.69866 61.70988,2016.74185 L61.676945,2016.72954 C62.3745566,2013.60827 63.0778182,2010.48913 63.7867184,2007.37213 L65.8264658,1998.63632 Z M74.473398,1962.27153 L74.5090889,1962.28642 L70.9201145,1976.8694 C72.0907501,1971.99805 73.2751925,1967.13208 74.473398,1962.27153 Z M84.9248292,1921.32979 L84.9628147,1921.34562 L80.8502164,1936.95895 C82.1925522,1931.74283 83.5507747,1926.5331 84.9248292,1921.32979 Z M96.0106675,1880.70466 L96.0509839,1880.72123 L91.5212335,1896.8418 C93.0007272,1891.45569 94.4972257,1886.07662 96.0106675,1880.70466 Z M107.802138,1840.29489 C105.833152,1846.86668 103.889634,1853.44946 101.971699,1860.04314 L101.930333,1860.02571 C102.83025,1856.93121 103.735802,1853.83912 104.646976,1850.74943 L107.802138,1840.29489 Z M120.173979,1800.1993 C117.558159,1808.4368 114.982539,1816.6922 112.447351,1824.96527 L112.404344,1824.94598 C113.706437,1820.69599 115.0192,1816.45066 116.342601,1812.21004 L120.173979,1800.1993 Z M133.19753,1760.32151 C130.263127,1769.06342 127.374222,1777.8262 124.531098,1786.60959 L124.485911,1786.58955 C125.8534,1782.36408 127.231484,1778.14337 128.620132,1773.92747 L133.19753,1760.32151 Z M146.959146,1720.41673 C143.728589,1729.53993 140.54785,1738.68669 137.417257,1747.85668 L137.370088,1747.8352 C138.728756,1743.85471 140.096873,1739.8786 141.474411,1735.90689 L146.959146,1720.41673 Z M151.043381,1708.96906 L150.994295,1708.94597 C152.288521,1705.34475 153.590522,1701.74724 154.900277,1698.15346 L161.923587,1679.27668 C158.238071,1689.14569 154.611195,1699.04329 151.043381,1708.96906 Z M172.574641,1651.09675 L172.626404,1651.1226 L165.26184,1670.22817 C167.674869,1663.83891 170.112508,1657.46173 172.574641,1651.09675 Z M188.098736,1612.08375 C183.557913,1623.27261 179.093254,1634.50051 174.705403,1645.7668 L174.653326,1645.74087 C177.550822,1638.3 180.48182,1630.87587 183.446137,1623.46867 L188.098736,1612.08375 Z M204.345464,1572.98003 C199.757789,1583.76984 195.241412,1594.59728 190.796927,1605.46175 L190.742958,1605.43403 C193.323047,1599.12605 195.92737,1592.83054 198.555812,1586.54764 L204.345464,1572.98003 Z M221.287723,1534.03129 C216.416993,1544.98018 211.620198,1555.96924 206.897971,1566.99781 L206.842223,1566.96837 C209.280439,1561.27314 211.73854,1555.58845 214.216439,1549.91439 L221.287723,1534.03129 Z M239.448018,1494.12924 C234.103453,1505.61154 228.840824,1517.13968 223.660883,1528.71292 L223.603589,1528.68128 C225.860991,1523.63696 228.134102,1518.60121 230.422858,1513.57408 L239.448018,1494.12924 Z M2581.182,0.003 L2581.3471,0 C2139.417,0 1749.35016,444.192071 1516.63329,1121.56194 L1516.62838,1121.5715 C1251.16195,1008.1039 1028.68906,853.43877 869.253633,671.012874 L858.916086,659.042133 L858.939246,659 C600.711273,890.458727 389.356611,1173.15295 240.862587,1491.09534 L240.803471,1491.06227 C646.442701,622.419945 1521.27651,16.8467894 2539.30671,0.340981216 L2581.182,0.003 Z" id="Combined-Shape" fill="#D8E7FF"></path>
                    <path d="M2579.77195,2.3021357e-06 C2579.80902,5.39954444e-06 2579.84609,1.16224893e-05 2579.88316,2.09708458e-05 L2579.88281,1329.156 L2579.38281,1329.15966 C2187.67097,1329.15966 1822.49291,1253.00302 1514.999,1121.57187 L1515.00304,1121.56194 C1747.7199,444.192071 2137.78674,0 2579.71684,0 L2579.551,0.003 Z" id="Combined-Shape" fill="#C0D8FF"></path>
                </g>
                <g id="Group-2" transform="translate(3868.000000, 1291.500000) scale(-1, 1) translate(-3868.000000, -1291.500000) translate(2577.000000, 0.000000)">
                    <path d="M859.426176,658 L859.403016,658.042133 C1019.49845,845.6782 1245.86809,1004.63487 1517.12735,1120.57664 L1517.11043,1120.53482 C1373.30915,1535.67133 1288.77869,2039.20133 1288.00535,2582.14271 L0.004,2582.15466 L-4.54747351e-13,2581.65466 C-4.54747351e-13,1817.48365 331.907116,1130.83371 859.426176,658 Z" id="Combined-Shape" fill="#6AA1FA"></path>
                    <path d="M2580.49465,1328.6251 L2580.99465,1328.62144 L2580.99465,2582.6201 L1287,2582.60833 C1287.77332,2039.66676 1372.30382,1536.1366 1516.10517,1121 L1516.123,1121.04252 C1823.61437,1252.47047 2188.78797,1328.6251 2580.49465,1328.6251 Z" id="Combined-Shape" fill="#8CB7FD"></path>
                    <path d="M21.2780556,2245.68021 L21.2979925,2245.68684 L20.0076922,2255.58287 C20.4249128,2252.28004 20.8483713,2248.97915 21.2780556,2245.68021 Z M27.1492349,2203.34301 L27.171611,2203.35061 L25.4850904,2214.8334 C26.0313961,2211.00055 26.5861174,2207.17042 27.1492349,2203.34301 Z M33.6724162,2161.4064 L33.697186,2161.41505 L31.6902988,2173.67821 C32.3413924,2169.58439 33.0021061,2165.49378 33.6724162,2161.4064 Z M40.8587198,2119.73254 L40.8858026,2119.74253 L38.5926208,2132.44019 C39.3376554,2128.20074 40.0930308,2123.96485 40.8587198,2119.73254 Z M48.6820234,2078.58043 C47.8006291,2083.03511 46.9306912,2087.4939 46.0722419,2091.95679 L46.0434864,2091.94665 C46.3548669,2090.32733 46.6677599,2088.70856 46.9821637,2087.09032 L48.6820234,2078.58043 Z M57.0303857,2038.10005 C55.7844838,2043.90475 54.5580909,2049.7167 53.3512789,2055.53581 L53.3204813,2055.52468 C53.9017813,2052.72088 54.4876271,2049.91875 55.0780106,2047.11829 L57.0303857,2038.10005 Z M65.758241,1998.93152 C64.3951836,2004.83092 63.0523385,2010.73805 61.7297827,2016.65284 L61.6968081,2016.64067 C62.3879055,2013.54906 63.0845459,2010.45955 63.7867184,2007.37213 L65.758241,1998.93152 Z M74.4936575,1962.18935 L74.5292776,1962.20455 L70.9174753,1976.88038 C72.0955671,1971.97791 73.2876427,1967.08089 74.4936575,1962.18935 Z M84.9277397,1921.31877 L84.9657163,1921.33464 L80.8702555,1936.88109 C82.2070172,1931.68731 83.5595299,1926.49985 84.9277397,1921.31877 Z M96.0332467,1880.62452 L96.0735025,1880.64132 L91.5245233,1896.82982 C93.0103029,1891.42093 94.5132314,1886.01915 96.0332467,1880.62452 Z M107.765922,1840.41578 C105.793215,1847.00116 103.846082,1853.59759 101.924636,1860.20496 L101.883306,1860.18744 C102.7987,1857.03895 103.719928,1853.89294 104.646976,1850.74943 L107.765922,1840.41578 Z M120.174613,1800.1973 C117.594409,1808.32262 115.053318,1816.46535 112.55156,1824.62529 L112.50842,1824.60636 C113.776382,1820.46982 115.054452,1816.33771 116.342601,1812.21004 L120.174613,1800.1973 Z M133.232762,1760.21656 C130.269311,1769.04374 127.352252,1777.8922 124.481874,1786.76168 L124.43678,1786.74138 C125.820391,1782.46518 127.214853,1778.19387 128.620132,1773.92747 L133.232762,1760.21656 Z M147.053327,1720.1508 C143.790403,1729.36219 140.578268,1738.59759 137.417257,1747.85668 L137.370088,1747.8352 C138.728756,1743.85471 140.096873,1739.8786 141.474411,1735.90689 L147.053327,1720.1508 Z M161.669072,1679.95851 C158.056449,1689.64071 154.500261,1699.35042 151.000908,1709.08723 L150.951954,1709.06379 C152.260124,1705.42322 153.576238,1701.78643 154.900277,1698.15346 L161.669072,1679.95851 Z M172.542477,1651.1799 L172.594356,1651.20544 L165.293509,1670.14432 C167.685688,1663.81094 170.102048,1657.48943 172.542477,1651.1799 Z M188.136008,1611.99192 C183.640179,1623.06868 179.218997,1634.1837 174.873086,1645.33637 L174.820931,1645.31057 C177.663838,1638.01377 180.538965,1630.73308 183.446137,1623.46867 L188.136008,1611.99192 Z M204.301744,1573.08286 C199.712751,1583.87708 195.195114,1594.70895 190.749426,1605.57787 L190.69551,1605.55004 C193.291117,1599.20324 195.911257,1592.86906 198.555812,1586.54764 L204.301744,1573.08286 Z M221.327698,1533.94143 C216.461225,1544.87963 211.668543,1555.85792 206.950284,1566.87565 L206.894443,1566.8464 C209.315535,1561.19198 211.756229,1555.54795 214.216439,1549.91439 L221.327698,1533.94143 Z M239.30121,1494.4447 C233.99875,1505.84057 228.776994,1517.28159 223.636675,1528.767 L223.57944,1528.73524 C225.844779,1523.67288 228.12594,1518.61913 230.422858,1513.57408 L239.30121,1494.4447 Z M2581.18169,0.003 L2581.3471,0 C2139.417,0 1749.35016,444.192071 1516.63329,1121.56194 L1516.62838,1121.5715 C1251.16195,1008.1039 1028.68906,853.43877 869.253633,671.012874 L858.916086,659.042133 L858.939246,659 C600.747897,890.4259 389.416564,1173.07276 240.925773,1490.96006 L240.866451,1490.92741 C646.533247,622.357269 1521.32919,16.8459352 2539.30671,0.340981216 L2581.18169,0.003 Z" id="Combined-Shape" fill="#8CB7FD"></path>
                    <path d="M2579.77195,2.3021357e-06 C2579.80902,5.39954444e-06 2579.84609,1.16224893e-05 2579.88316,2.09708458e-05 L2579.88281,1329.156 L2579.38281,1329.15966 C2187.67097,1329.15966 1822.49291,1253.00302 1514.999,1121.57187 L1515.00304,1121.56194 C1747.7199,444.192071 2137.78674,0 2579.71684,0 L2579.551,0.003 Z" id="Combined-Shape" fill="#A4C7FF"></path>
                </g>
            </g>
            <g id="Group-3" transform="translate(2579.500000, 3870.500000) scale(1, -1) translate(-2579.500000, -3870.500000) translate(0.000000, 2579.000000)">
                <g id="Group-2">
                    <path d="M859.426176,658 L859.403016,658.042133 C1019.49845,845.6782 1245.86809,1004.63487 1517.12735,1120.57664 L1517.11043,1120.53482 C1373.30915,1535.67133 1288.77869,2039.20133 1288.00535,2582.14271 L0.004,2582.15466 L-4.54747351e-13,2581.65466 C-4.54747351e-13,1817.48365 331.907116,1130.83371 859.426176,658 Z" id="Combined-Shape" fill="#A4C7FF"></path>
                    <path d="M2580.49465,1328.6251 L2580.99465,1328.62144 L2580.99465,2582.6201 L1287,2582.60833 C1287.77332,2039.66676 1372.30382,1536.1366 1516.10517,1121 L1516.123,1121.04252 C1823.61437,1252.47047 2188.78797,1328.6251 2580.49465,1328.6251 Z" id="Combined-Shape" fill="#8CB7FD"></path>
                    <path d="M21.277664,2245.68322 L21.2976021,2245.68983 L20,2255.64377 C20.419581,2252.32162 20.8454731,2249.00143 21.277664,2245.68322 Z M27.1374433,2203.42317 L27.1598486,2203.43054 L25.4887901,2214.80744 C26.0300866,2211.01001 26.579644,2207.21525 27.1374433,2203.42317 Z M33.6692947,2161.42544 L33.6940715,2161.43403 L31.6931565,2173.66024 C32.3423149,2169.57878 33.0010355,2165.5005 33.6692947,2161.42544 Z M40.8500217,2119.78063 L40.8771204,2119.7905 L38.6066536,2132.36035 C39.3443182,2128.16361 40.0921163,2123.97036 40.8500217,2119.78063 Z M48.6739135,2078.62142 C47.823757,2082.91858 46.9842612,2087.21958 46.1554547,2091.52438 L46.1266126,2091.51455 C46.4105414,2090.03936 46.6957255,2088.56462 46.9821637,2087.09032 L48.6739135,2078.62142 Z M57.0600143,2037.96203 C55.7884413,2043.88475 54.5371788,2049.81501 53.3063032,2055.75273 L53.2755733,2055.74134 C53.8716054,2052.86523 54.4724208,2049.99088 55.0780106,2047.11829 L57.0600143,2037.96203 Z M65.8264658,1998.63632 C64.4331455,2004.66345 63.060923,2010.69866 61.70988,2016.74185 L61.676945,2016.72954 C62.3745566,2013.60827 63.0778182,2010.48913 63.7867184,2007.37213 L65.8264658,1998.63632 Z M74.473398,1962.27153 L74.5090889,1962.28642 L70.9201145,1976.8694 C72.0907501,1971.99805 73.2751925,1967.13208 74.473398,1962.27153 Z M84.9248292,1921.32979 L84.9628147,1921.34562 L80.8502164,1936.95895 C82.1925522,1931.74283 83.5507747,1926.5331 84.9248292,1921.32979 Z M96.0106675,1880.70466 L96.0509839,1880.72123 L91.5212335,1896.8418 C93.0007272,1891.45569 94.4972257,1886.07662 96.0106675,1880.70466 Z M107.802138,1840.29489 C105.833152,1846.86668 103.889634,1853.44946 101.971699,1860.04314 L101.930333,1860.02571 C102.83025,1856.93121 103.735802,1853.83912 104.646976,1850.74943 L107.802138,1840.29489 Z M120.173979,1800.1993 C117.558159,1808.4368 114.982539,1816.6922 112.447351,1824.96527 L112.404344,1824.94598 C113.706437,1820.69599 115.0192,1816.45066 116.342601,1812.21004 L120.173979,1800.1993 Z M133.19753,1760.32151 C130.263127,1769.06342 127.374222,1777.8262 124.531098,1786.60959 L124.485911,1786.58955 C125.8534,1782.36408 127.231484,1778.14337 128.620132,1773.92747 L133.19753,1760.32151 Z M146.959146,1720.41673 C143.728589,1729.53993 140.54785,1738.68669 137.417257,1747.85668 L137.370088,1747.8352 C138.728756,1743.85471 140.096873,1739.8786 141.474411,1735.90689 L146.959146,1720.41673 Z M151.043381,1708.96906 L150.994295,1708.94597 C152.288521,1705.34475 153.590522,1701.74724 154.900277,1698.15346 L161.923587,1679.27668 C158.238071,1689.14569 154.611195,1699.04329 151.043381,1708.96906 Z M172.574641,1651.09675 L172.626404,1651.1226 L165.26184,1670.22817 C167.674869,1663.83891 170.112508,1657.46173 172.574641,1651.09675 Z M188.098736,1612.08375 C183.557913,1623.27261 179.093254,1634.50051 174.705403,1645.7668 L174.653326,1645.74087 C177.550822,1638.3 180.48182,1630.87587 183.446137,1623.46867 L188.098736,1612.08375 Z M204.345464,1572.98003 C199.757789,1583.76984 195.241412,1594.59728 190.796927,1605.46175 L190.742958,1605.43403 C193.323047,1599.12605 195.92737,1592.83054 198.555812,1586.54764 L204.345464,1572.98003 Z M221.287723,1534.03129 C216.416993,1544.98018 211.620198,1555.96924 206.897971,1566.99781 L206.842223,1566.96837 C209.280439,1561.27314 211.73854,1555.58845 214.216439,1549.91439 L221.287723,1534.03129 Z M239.448018,1494.12924 C234.103453,1505.61154 228.840824,1517.13968 223.660883,1528.71292 L223.603589,1528.68128 C225.860991,1523.63696 228.134102,1518.60121 230.422858,1513.57408 L239.448018,1494.12924 Z M2581.182,0.003 L2581.3471,0 C2139.417,0 1749.35016,444.192071 1516.63329,1121.56194 L1516.62838,1121.5715 C1251.16195,1008.1039 1028.68906,853.43877 869.253633,671.012874 L858.916086,659.042133 L858.939246,659 C600.711273,890.458727 389.356611,1173.15295 240.862587,1491.09534 L240.803471,1491.06227 C646.442701,622.419945 1521.27651,16.8467894 2539.30671,0.340981216 L2581.182,0.003 Z" id="Combined-Shape" fill="#8CB7FD"></path>
                    <path d="M2579.77195,2.3021357e-06 C2579.80902,5.39954444e-06 2579.84609,1.16224893e-05 2579.88316,2.09708458e-05 L2579.88281,1329.156 L2579.38281,1329.15966 C2187.67097,1329.15966 1822.49291,1253.00302 1514.999,1121.57187 L1515.00304,1121.56194 C1747.7199,444.192071 2137.78674,0 2579.71684,0 L2579.551,0.003 Z" id="Combined-Shape" fill="#6AA1FA"></path>
                </g>
                <g id="Group-2" transform="translate(3868.000000, 1291.500000) scale(-1, 1) translate(-3868.000000, -1291.500000) translate(2577.000000, 0.000000)">
                    <path d="M859.426176,658 L859.403016,658.042133 C1019.49845,845.6782 1245.86809,1004.63487 1517.12735,1120.57664 L1517.11043,1120.53482 C1373.30915,1535.67133 1288.77869,2039.20133 1288.00535,2582.14271 L0.004,2582.15466 L-4.54747351e-13,2581.65466 C-4.54747351e-13,1817.48365 331.907116,1130.83371 859.426176,658 Z" id="Combined-Shape" fill="#4A88ED"></path>
                    <path d="M2580.49465,1328.6251 L2580.99465,1328.62144 L2580.99465,2582.6201 L1287,2582.60833 C1287.77332,2039.66676 1372.30382,1536.1366 1516.10517,1121 L1516.123,1121.04252 C1823.61437,1252.47047 2188.78797,1328.6251 2580.49465,1328.6251 Z" id="Combined-Shape" fill="#6AA1FA"></path>
                    <path d="M21.277664,2245.68322 L21.2976021,2245.68983 L20,2255.64377 C20.419581,2252.32162 20.8454731,2249.00143 21.277664,2245.68322 Z M27.1374433,2203.42317 L27.1598486,2203.43054 L25.4887901,2214.80744 C26.0300866,2211.01001 26.579644,2207.21525 27.1374433,2203.42317 Z M33.6692947,2161.42544 L33.6940715,2161.43403 L31.6931565,2173.66024 C32.3423149,2169.57878 33.0010355,2165.5005 33.6692947,2161.42544 Z M40.8500217,2119.78063 L40.8771204,2119.7905 L38.6066536,2132.36035 C39.3443182,2128.16361 40.0921163,2123.97036 40.8500217,2119.78063 Z M48.6739135,2078.62142 C47.823757,2082.91858 46.9842612,2087.21958 46.1554547,2091.52438 L46.1266126,2091.51455 C46.4105414,2090.03936 46.6957255,2088.56462 46.9821637,2087.09032 L48.6739135,2078.62142 Z M57.0600143,2037.96203 C55.7884413,2043.88475 54.5371788,2049.81501 53.3063032,2055.75273 L53.2755733,2055.74134 C53.8716054,2052.86523 54.4724208,2049.99088 55.0780106,2047.11829 L57.0600143,2037.96203 Z M65.8264658,1998.63632 C64.4331455,2004.66345 63.060923,2010.69866 61.70988,2016.74185 L61.676945,2016.72954 C62.3745566,2013.60827 63.0778182,2010.48913 63.7867184,2007.37213 L65.8264658,1998.63632 Z M74.473398,1962.27153 L74.5090889,1962.28642 L70.9201145,1976.8694 C72.0907501,1971.99805 73.2751925,1967.13208 74.473398,1962.27153 Z M84.9248292,1921.32979 L84.9628147,1921.34562 L80.8502164,1936.95895 C82.1925522,1931.74283 83.5507747,1926.5331 84.9248292,1921.32979 Z M96.0106675,1880.70466 L96.0509839,1880.72123 L91.5212335,1896.8418 C93.0007272,1891.45569 94.4972257,1886.07662 96.0106675,1880.70466 Z M107.802138,1840.29489 C105.833152,1846.86668 103.889634,1853.44946 101.971699,1860.04314 L101.930333,1860.02571 C102.83025,1856.93121 103.735802,1853.83912 104.646976,1850.74943 L107.802138,1840.29489 Z M120.173979,1800.1993 C117.558159,1808.4368 114.982539,1816.6922 112.447351,1824.96527 L112.404344,1824.94598 C113.706437,1820.69599 115.0192,1816.45066 116.342601,1812.21004 L120.173979,1800.1993 Z M133.19753,1760.32151 C130.263127,1769.06342 127.374222,1777.8262 124.531098,1786.60959 L124.485911,1786.58955 C125.8534,1782.36408 127.231484,1778.14337 128.620132,1773.92747 L133.19753,1760.32151 Z M146.959146,1720.41673 C143.728589,1729.53993 140.54785,1738.68669 137.417257,1747.85668 L137.370088,1747.8352 C138.728756,1743.85471 140.096873,1739.8786 141.474411,1735.90689 L146.959146,1720.41673 Z M151.043381,1708.96906 L150.994295,1708.94597 C152.288521,1705.34475 153.590522,1701.74724 154.900277,1698.15346 L161.923587,1679.27668 C158.238071,1689.14569 154.611195,1699.04329 151.043381,1708.96906 Z M172.574641,1651.09675 L172.626404,1651.1226 L165.26184,1670.22817 C167.674869,1663.83891 170.112508,1657.46173 172.574641,1651.09675 Z M188.098736,1612.08375 C183.557913,1623.27261 179.093254,1634.50051 174.705403,1645.7668 L174.653326,1645.74087 C177.550822,1638.3 180.48182,1630.87587 183.446137,1623.46867 L188.098736,1612.08375 Z M204.345464,1572.98003 C199.757789,1583.76984 195.241412,1594.59728 190.796927,1605.46175 L190.742958,1605.43403 C193.323047,1599.12605 195.92737,1592.83054 198.555812,1586.54764 L204.345464,1572.98003 Z M221.287723,1534.03129 C216.416993,1544.98018 211.620198,1555.96924 206.897971,1566.99781 L206.842223,1566.96837 C209.280439,1561.27314 211.73854,1555.58845 214.216439,1549.91439 L221.287723,1534.03129 Z M239.448018,1494.12924 C234.103453,1505.61154 228.840824,1517.13968 223.660883,1528.71292 L223.603589,1528.68128 C225.860991,1523.63696 228.134102,1518.60121 230.422858,1513.57408 L239.448018,1494.12924 Z M2581.182,0.003 L2581.3471,0 C2139.417,0 1749.35016,444.192071 1516.63329,1121.56194 L1516.62838,1121.5715 C1251.16195,1008.1039 1028.68906,853.43877 869.253633,671.012874 L858.916086,659.042133 L858.939246,659 C600.711273,890.458727 389.356611,1173.15295 240.862587,1491.09534 L240.803471,1491.06227 C646.442701,622.419945 1521.27651,16.8467894 2539.30671,0.340981216 L2581.182,0.003 Z" id="Combined-Shape" fill="#3677E1"></path>
                    <path d="M2579.77195,2.3021357e-06 C2579.80902,5.39954444e-06 2579.84609,1.16224893e-05 2579.88316,2.09708458e-05 L2579.88281,1329.156 L2579.38281,1329.15966 C2187.67097,1329.15966 1822.49291,1253.00302 1514.999,1121.57187 L1515.00304,1121.56194 C1747.7199,444.192071 2137.78674,0 2579.71684,0 L2579.551,0.003 Z" id="Combined-Shape" fill="#4A88ED"></path>
                </g>
            </g>
        </g>
    </g>
</svg>